<mxfile host="app.diagrams.net" modified="2024-04-10T22:50:08.177Z" agent="Mozilla/5.0 (Windows NT 10.0; Win64; x64; rv:124.0) Gecko/20100101 Firefox/124.0" etag="Z6ivynMox93_0_OJycPf" version="24.2.3" type="device">
  <diagram id="C5RBs43oDa-KdzZeNtuy" name="Page-1">
    <mxGraphModel dx="1627" dy="2009" grid="1" gridSize="10" guides="1" tooltips="1" connect="1" arrows="1" fold="1" page="1" pageScale="1" pageWidth="827" pageHeight="1169" math="0" shadow="0">
      <root>
        <mxCell id="WIyWlLk6GJQsqaUBKTNV-0" />
        <mxCell id="WIyWlLk6GJQsqaUBKTNV-1" parent="WIyWlLk6GJQsqaUBKTNV-0" />
        <mxCell id="UCwzK4-Ro5PUvhWvtk_V-3" value="check if input is a positvie number" style="rhombus;strokeWidth=2;whiteSpace=wrap;" vertex="1" parent="WIyWlLk6GJQsqaUBKTNV-1">
          <mxGeometry x="245.5" y="200.5" width="309" height="309" as="geometry" />
        </mxCell>
        <mxCell id="UCwzK4-Ro5PUvhWvtk_V-5" value="Convert_to_Float" style="whiteSpace=wrap;strokeWidth=2;" vertex="1" parent="WIyWlLk6GJQsqaUBKTNV-1">
          <mxGeometry x="708.5" y="338" width="139" height="34" as="geometry" />
        </mxCell>
        <mxCell id="UCwzK4-Ro5PUvhWvtk_V-6" value="theta &lt;= 45: " style="rhombus;strokeWidth=2;whiteSpace=wrap;" vertex="1" parent="WIyWlLk6GJQsqaUBKTNV-1">
          <mxGeometry x="698.5" y="570" width="142" height="142" as="geometry" />
        </mxCell>
        <mxCell id="UCwzK4-Ro5PUvhWvtk_V-8" value="find_hypotenuse(theta, adjacent)" style="whiteSpace=wrap;strokeWidth=2;" vertex="1" parent="WIyWlLk6GJQsqaUBKTNV-1">
          <mxGeometry x="639" y="800" width="258" height="34" as="geometry" />
        </mxCell>
        <mxCell id="UCwzK4-Ro5PUvhWvtk_V-10" value="find_opposite(theta, hypotenuse)" style="whiteSpace=wrap;strokeWidth=2;" vertex="1" parent="WIyWlLk6GJQsqaUBKTNV-1">
          <mxGeometry x="642" y="1169" width="256" height="34" as="geometry" />
        </mxCell>
        <mxCell id="UCwzK4-Ro5PUvhWvtk_V-16" value="" style="curved=1;startArrow=none;endArrow=block;exitX=0.4980215717562669;exitY=0.9906857434441062;entryX=0.5015844962966274;entryY=-0.002230174104932328;rounded=0;" edge="1" parent="WIyWlLk6GJQsqaUBKTNV-1" source="UCwzK4-Ro5PUvhWvtk_V-5" target="UCwzK4-Ro5PUvhWvtk_V-6">
          <mxGeometry relative="1" as="geometry">
            <Array as="points" />
          </mxGeometry>
        </mxCell>
        <mxCell id="UCwzK4-Ro5PUvhWvtk_V-20" value="" style="curved=1;startArrow=none;endArrow=block;exitX=0.5;exitY=1;entryX=0.4990071654319763;entryY=-0.0024518405689912684;rounded=0;exitDx=0;exitDy=0;" edge="1" parent="WIyWlLk6GJQsqaUBKTNV-1" source="UCwzK4-Ro5PUvhWvtk_V-71" target="UCwzK4-Ro5PUvhWvtk_V-10">
          <mxGeometry relative="1" as="geometry">
            <Array as="points" />
            <mxPoint x="799.7445818614774" y="1074" as="sourcePoint" />
          </mxGeometry>
        </mxCell>
        <mxCell id="UCwzK4-Ro5PUvhWvtk_V-29" value="&lt;div&gt;Yes&lt;/div&gt;" style="text;html=1;align=center;verticalAlign=middle;whiteSpace=wrap;rounded=0;" vertex="1" parent="WIyWlLk6GJQsqaUBKTNV-1">
          <mxGeometry x="582" y="310" width="60" height="30" as="geometry" />
        </mxCell>
        <mxCell id="UCwzK4-Ro5PUvhWvtk_V-30" value="" style="endArrow=classic;html=1;rounded=0;exitX=1;exitY=0.5;exitDx=0;exitDy=0;entryX=0;entryY=0.5;entryDx=0;entryDy=0;" edge="1" parent="WIyWlLk6GJQsqaUBKTNV-1" source="UCwzK4-Ro5PUvhWvtk_V-3" target="UCwzK4-Ro5PUvhWvtk_V-5">
          <mxGeometry width="50" height="50" relative="1" as="geometry">
            <mxPoint x="551" y="343.73" as="sourcePoint" />
            <mxPoint x="701" y="343.73" as="targetPoint" />
          </mxGeometry>
        </mxCell>
        <mxCell id="UCwzK4-Ro5PUvhWvtk_V-34" value="" style="endArrow=classic;html=1;rounded=0;exitX=0;exitY=0.5;exitDx=0;exitDy=0;entryX=1;entryY=0.5;entryDx=0;entryDy=0;" edge="1" parent="WIyWlLk6GJQsqaUBKTNV-1" source="UCwzK4-Ro5PUvhWvtk_V-3">
          <mxGeometry width="50" height="50" relative="1" as="geometry">
            <mxPoint x="420" y="520" as="sourcePoint" />
            <mxPoint x="45" y="357" as="targetPoint" />
          </mxGeometry>
        </mxCell>
        <mxCell id="UCwzK4-Ro5PUvhWvtk_V-35" value="No" style="text;html=1;align=center;verticalAlign=middle;whiteSpace=wrap;rounded=0;" vertex="1" parent="WIyWlLk6GJQsqaUBKTNV-1">
          <mxGeometry x="80" y="320" width="60" height="30" as="geometry" />
        </mxCell>
        <mxCell id="UCwzK4-Ro5PUvhWvtk_V-36" value="" style="endArrow=classic;html=1;rounded=0;entryX=0.5;entryY=0;entryDx=0;entryDy=0;exitX=0.5;exitY=1;exitDx=0;exitDy=0;" edge="1" parent="WIyWlLk6GJQsqaUBKTNV-1" source="UCwzK4-Ro5PUvhWvtk_V-6" target="UCwzK4-Ro5PUvhWvtk_V-8">
          <mxGeometry width="50" height="50" relative="1" as="geometry">
            <mxPoint x="510" y="630" as="sourcePoint" />
            <mxPoint x="560" y="580" as="targetPoint" />
          </mxGeometry>
        </mxCell>
        <mxCell id="UCwzK4-Ro5PUvhWvtk_V-37" value="hypotenuse = adjacent / theha" style="rounded=0;whiteSpace=wrap;html=1;" vertex="1" parent="WIyWlLk6GJQsqaUBKTNV-1">
          <mxGeometry x="600" y="920" width="320" height="60" as="geometry" />
        </mxCell>
        <mxCell id="UCwzK4-Ro5PUvhWvtk_V-40" value="" style="endArrow=classic;html=1;rounded=0;entryX=0.533;entryY=0.05;entryDx=0;entryDy=0;entryPerimeter=0;exitX=0.5;exitY=1;exitDx=0;exitDy=0;" edge="1" parent="WIyWlLk6GJQsqaUBKTNV-1" source="UCwzK4-Ro5PUvhWvtk_V-8" target="UCwzK4-Ro5PUvhWvtk_V-37">
          <mxGeometry width="50" height="50" relative="1" as="geometry">
            <mxPoint x="700" y="930" as="sourcePoint" />
            <mxPoint x="750" y="880" as="targetPoint" />
          </mxGeometry>
        </mxCell>
        <mxCell id="UCwzK4-Ro5PUvhWvtk_V-42" value="" style="endArrow=classic;html=1;rounded=0;entryX=0.5;entryY=0;entryDx=0;entryDy=0;exitX=0.529;exitY=1.094;exitDx=0;exitDy=0;exitPerimeter=0;" edge="1" parent="WIyWlLk6GJQsqaUBKTNV-1" source="UCwzK4-Ro5PUvhWvtk_V-37" target="UCwzK4-Ro5PUvhWvtk_V-71">
          <mxGeometry width="50" height="50" relative="1" as="geometry">
            <mxPoint x="700" y="930" as="sourcePoint" />
            <mxPoint x="800" y="1040" as="targetPoint" />
          </mxGeometry>
        </mxCell>
        <mxCell id="UCwzK4-Ro5PUvhWvtk_V-43" value="opposite = theta * hypotenuse" style="rounded=0;whiteSpace=wrap;html=1;" vertex="1" parent="WIyWlLk6GJQsqaUBKTNV-1">
          <mxGeometry x="658" y="1280" width="240" height="60" as="geometry" />
        </mxCell>
        <mxCell id="UCwzK4-Ro5PUvhWvtk_V-45" value="" style="endArrow=classic;html=1;rounded=0;exitX=0.5;exitY=1;exitDx=0;exitDy=0;entryX=0.469;entryY=-0.017;entryDx=0;entryDy=0;entryPerimeter=0;" edge="1" parent="WIyWlLk6GJQsqaUBKTNV-1" source="UCwzK4-Ro5PUvhWvtk_V-10" target="UCwzK4-Ro5PUvhWvtk_V-43">
          <mxGeometry width="50" height="50" relative="1" as="geometry">
            <mxPoint x="700" y="1270" as="sourcePoint" />
            <mxPoint x="770" y="1270" as="targetPoint" />
          </mxGeometry>
        </mxCell>
        <mxCell id="UCwzK4-Ro5PUvhWvtk_V-46" value="" style="endArrow=classic;html=1;rounded=0;exitX=0.5;exitY=1;exitDx=0;exitDy=0;" edge="1" parent="WIyWlLk6GJQsqaUBKTNV-1" source="UCwzK4-Ro5PUvhWvtk_V-43">
          <mxGeometry width="50" height="50" relative="1" as="geometry">
            <mxPoint x="700" y="1270" as="sourcePoint" />
            <mxPoint x="780" y="1420" as="targetPoint" />
          </mxGeometry>
        </mxCell>
        <mxCell id="UCwzK4-Ro5PUvhWvtk_V-47" value="" style="endArrow=classic;html=1;rounded=0;entryX=1;entryY=0.5;entryDx=0;entryDy=0;exitX=0;exitY=0.5;exitDx=0;exitDy=0;entryPerimeter=0;" edge="1" parent="WIyWlLk6GJQsqaUBKTNV-1" source="UCwzK4-Ro5PUvhWvtk_V-72" target="UCwzK4-Ro5PUvhWvtk_V-70">
          <mxGeometry width="50" height="50" relative="1" as="geometry">
            <mxPoint x="611" y="1427" as="sourcePoint" />
            <mxPoint x="414" y="1430" as="targetPoint" />
          </mxGeometry>
        </mxCell>
        <mxCell id="UCwzK4-Ro5PUvhWvtk_V-49" value="" style="endArrow=classic;html=1;rounded=0;exitX=0;exitY=0.5;exitDx=0;exitDy=0;" edge="1" parent="WIyWlLk6GJQsqaUBKTNV-1" source="UCwzK4-Ro5PUvhWvtk_V-6">
          <mxGeometry width="50" height="50" relative="1" as="geometry">
            <mxPoint x="510" y="800" as="sourcePoint" />
            <mxPoint x="450" y="641" as="targetPoint" />
          </mxGeometry>
        </mxCell>
        <mxCell id="UCwzK4-Ro5PUvhWvtk_V-50" value="No" style="text;html=1;align=center;verticalAlign=middle;whiteSpace=wrap;rounded=0;" vertex="1" parent="WIyWlLk6GJQsqaUBKTNV-1">
          <mxGeometry x="551" y="590" width="60" height="30" as="geometry" />
        </mxCell>
        <mxCell id="UCwzK4-Ro5PUvhWvtk_V-52" value="" style="endArrow=classic;html=1;rounded=0;exitX=0.5;exitY=1;exitDx=0;exitDy=0;entryX=0.5;entryY=0;entryDx=0;entryDy=0;entryPerimeter=0;" edge="1" parent="WIyWlLk6GJQsqaUBKTNV-1" target="UCwzK4-Ro5PUvhWvtk_V-70">
          <mxGeometry width="50" height="50" relative="1" as="geometry">
            <mxPoint x="365" y="671" as="sourcePoint" />
            <mxPoint x="354" y="1390" as="targetPoint" />
          </mxGeometry>
        </mxCell>
        <mxCell id="UCwzK4-Ro5PUvhWvtk_V-55" value="Start" style="ellipse;whiteSpace=wrap;html=1;" vertex="1" parent="WIyWlLk6GJQsqaUBKTNV-1">
          <mxGeometry x="330" y="-430" width="140" height="90" as="geometry" />
        </mxCell>
        <mxCell id="UCwzK4-Ro5PUvhWvtk_V-57" value="Enter the angle theta" style="shape=parallelogram;perimeter=parallelogramPerimeter;whiteSpace=wrap;html=1;fixedSize=1;" vertex="1" parent="WIyWlLk6GJQsqaUBKTNV-1">
          <mxGeometry x="305" y="-120" width="190" height="60" as="geometry" />
        </mxCell>
        <mxCell id="UCwzK4-Ro5PUvhWvtk_V-65" style="edgeStyle=orthogonalEdgeStyle;rounded=0;orthogonalLoop=1;jettySize=auto;html=1;exitX=0.5;exitY=1;exitDx=0;exitDy=0;entryX=0.5;entryY=0;entryDx=0;entryDy=0;" edge="1" parent="WIyWlLk6GJQsqaUBKTNV-1" source="UCwzK4-Ro5PUvhWvtk_V-57" target="UCwzK4-Ro5PUvhWvtk_V-62">
          <mxGeometry relative="1" as="geometry">
            <mxPoint x="650" y="10" as="targetPoint" />
          </mxGeometry>
        </mxCell>
        <mxCell id="UCwzK4-Ro5PUvhWvtk_V-62" value="Enter the length of the adjacent side " style="shape=parallelogram;perimeter=parallelogramPerimeter;whiteSpace=wrap;html=1;fixedSize=1;" vertex="1" parent="WIyWlLk6GJQsqaUBKTNV-1">
          <mxGeometry x="262.5" y="40" width="275" height="60" as="geometry" />
        </mxCell>
        <mxCell id="UCwzK4-Ro5PUvhWvtk_V-63" value="" style="endArrow=classic;html=1;rounded=0;entryX=0.5;entryY=0;entryDx=0;entryDy=0;exitX=0.5;exitY=1;exitDx=0;exitDy=0;" edge="1" parent="WIyWlLk6GJQsqaUBKTNV-1" source="UCwzK4-Ro5PUvhWvtk_V-62" target="UCwzK4-Ro5PUvhWvtk_V-3">
          <mxGeometry width="50" height="50" relative="1" as="geometry">
            <mxPoint x="280" y="180" as="sourcePoint" />
            <mxPoint x="450" y="130" as="targetPoint" />
          </mxGeometry>
        </mxCell>
        <mxCell id="UCwzK4-Ro5PUvhWvtk_V-68" value="" style="curved=1;endArrow=classic;html=1;rounded=0;exitX=0.5;exitY=1;exitDx=0;exitDy=0;entryX=0;entryY=0.5;entryDx=0;entryDy=0;entryPerimeter=0;" edge="1" parent="WIyWlLk6GJQsqaUBKTNV-1" target="UCwzK4-Ro5PUvhWvtk_V-70">
          <mxGeometry width="50" height="50" relative="1" as="geometry">
            <mxPoint x="-62.5" y="374" as="sourcePoint" />
            <mxPoint x="294" y="1430" as="targetPoint" />
            <Array as="points">
              <mxPoint x="130" y="850" />
              <mxPoint x="80" y="800" />
            </Array>
          </mxGeometry>
        </mxCell>
        <mxCell id="UCwzK4-Ro5PUvhWvtk_V-70" value="&lt;div&gt;End&lt;/div&gt;" style="strokeWidth=2;html=1;shape=mxgraph.flowchart.terminator;whiteSpace=wrap;" vertex="1" parent="WIyWlLk6GJQsqaUBKTNV-1">
          <mxGeometry x="314" y="1420" width="100" height="60" as="geometry" />
        </mxCell>
        <mxCell id="UCwzK4-Ro5PUvhWvtk_V-71" value="&#xa;Print &#39;Length of hypotenuse is: {hypotenuse:.3f}&#39;&#xa;&#xa;" style="shape=parallelogram;perimeter=parallelogramPerimeter;whiteSpace=wrap;html=1;fixedSize=1;" vertex="1" parent="WIyWlLk6GJQsqaUBKTNV-1">
          <mxGeometry x="600" y="1040" width="330" height="60" as="geometry" />
        </mxCell>
        <mxCell id="UCwzK4-Ro5PUvhWvtk_V-72" value="&#xa;Print &#39;Length of opposite is: {opposite:.3f}&#39;&#xa;&#xa;" style="shape=parallelogram;perimeter=parallelogramPerimeter;whiteSpace=wrap;html=1;fixedSize=1;" vertex="1" parent="WIyWlLk6GJQsqaUBKTNV-1">
          <mxGeometry x="660" y="1420" width="250" height="60" as="geometry" />
        </mxCell>
        <mxCell id="UCwzK4-Ro5PUvhWvtk_V-73" value="Print &quot;Angle is out of range&quot;" style="shape=parallelogram;perimeter=parallelogramPerimeter;whiteSpace=wrap;html=1;fixedSize=1;" vertex="1" parent="WIyWlLk6GJQsqaUBKTNV-1">
          <mxGeometry x="280" y="611" width="175" height="60" as="geometry" />
        </mxCell>
        <mxCell id="UCwzK4-Ro5PUvhWvtk_V-74" value="&#xa;Print &#39;Only positive integers&#39;&#xa;&#xa;" style="shape=parallelogram;perimeter=parallelogramPerimeter;whiteSpace=wrap;html=1;fixedSize=1;" vertex="1" parent="WIyWlLk6GJQsqaUBKTNV-1">
          <mxGeometry x="-150" y="312" width="210" height="60" as="geometry" />
        </mxCell>
        <mxCell id="UCwzK4-Ro5PUvhWvtk_V-75" value="&lt;div&gt;Yes&lt;/div&gt;" style="text;html=1;align=center;verticalAlign=middle;whiteSpace=wrap;rounded=0;" vertex="1" parent="WIyWlLk6GJQsqaUBKTNV-1">
          <mxGeometry x="780.5" y="720" width="60" height="30" as="geometry" />
        </mxCell>
        <mxCell id="UCwzK4-Ro5PUvhWvtk_V-76" value="Run main" style="rounded=0;whiteSpace=wrap;html=1;" vertex="1" parent="WIyWlLk6GJQsqaUBKTNV-1">
          <mxGeometry x="340" y="-260" width="120" height="60" as="geometry" />
        </mxCell>
        <mxCell id="UCwzK4-Ro5PUvhWvtk_V-77" value="" style="endArrow=classic;html=1;rounded=0;entryX=0.5;entryY=0;entryDx=0;entryDy=0;exitX=0.5;exitY=1;exitDx=0;exitDy=0;" edge="1" parent="WIyWlLk6GJQsqaUBKTNV-1" source="UCwzK4-Ro5PUvhWvtk_V-55" target="UCwzK4-Ro5PUvhWvtk_V-76">
          <mxGeometry width="50" height="50" relative="1" as="geometry">
            <mxPoint x="180" y="-10" as="sourcePoint" />
            <mxPoint x="230" y="-60" as="targetPoint" />
          </mxGeometry>
        </mxCell>
      </root>
    </mxGraphModel>
  </diagram>
</mxfile>
